<svg width="30" height="30" viewBox="0 0 30 30" fill="none" xmlns="http://www.w3.org/2000/svg">
<path d="M14.8638 7.30838C10.6468 7.30838 7.2454 10.7425 7.2454 15C7.2454 19.2575 10.6468 22.6916 14.8638 22.6916C19.0807 22.6916 22.4821 19.2575 22.4821 15C22.4821 10.7425 19.0807 7.30838 14.8638 7.30838ZM14.8638 20.0006C12.1387 20.0006 9.91083 17.758 9.91083 15C9.91083 12.242 12.132 9.99944 14.8638 9.99944C17.5955 9.99944 19.8167 12.242 19.8167 15C19.8167 17.758 17.5889 20.0006 14.8638 20.0006V20.0006ZM24.5707 6.99375C24.5707 7.99119 23.7751 8.78779 22.7938 8.78779C21.8058 8.78779 21.0168 7.98449 21.0168 6.99375C21.0168 6.00301 21.8125 5.19971 22.7938 5.19971C23.7751 5.19971 24.5707 6.00301 24.5707 6.99375ZM29.6165 8.81457C29.5038 6.41136 28.9601 4.28261 27.2163 2.52873C25.4791 0.774852 23.3706 0.225929 20.9903 0.105433C18.537 -0.0351445 11.1839 -0.0351445 8.73062 0.105433C6.35692 0.219235 4.24845 0.768158 2.50464 2.52203C0.760842 4.27591 0.223777 6.40466 0.104429 8.80788C-0.0348098 11.2847 -0.0348098 18.7086 0.104429 21.1854C0.217147 23.5886 0.760842 25.7174 2.50464 27.4713C4.24845 29.2251 6.35029 29.7741 8.73062 29.8946C11.1839 30.0351 18.537 30.0351 20.9903 29.8946C23.3706 29.7808 25.4791 29.2318 27.2163 27.4713C28.9534 25.7174 29.4971 23.5886 29.6165 21.1854C29.7557 18.7086 29.7557 11.2914 29.6165 8.81457V8.81457ZM26.4471 23.843C25.93 25.1551 24.9288 26.1659 23.6226 26.6947C21.6666 27.478 17.0253 27.2972 14.8638 27.2972C12.7022 27.2972 8.05431 27.4713 6.10497 26.6947C4.8054 26.1726 3.80421 25.1618 3.28041 23.843C2.50464 21.8682 2.68367 17.1823 2.68367 15C2.68367 12.8177 2.51128 8.12507 3.28041 6.15698C3.79758 4.84492 4.79877 3.8341 6.10497 3.30525C8.06094 2.52203 12.7022 2.70278 14.8638 2.70278C17.0253 2.70278 21.6732 2.52873 23.6226 3.30525C24.9221 3.8274 25.9233 4.83822 26.4471 6.15698C27.2229 8.13176 27.0439 12.8177 27.0439 15C27.0439 17.1823 27.2229 21.8749 26.4471 23.843Z" fill="#163F59"/>
</svg>
