<svg width="31" height="31" viewBox="0 0 31 31" fill="none" xmlns="http://www.w3.org/2000/svg">
<path d="M6.71966 30.1353H0.49988V10.1058H6.71966V30.1353ZM3.60642 7.37358C1.61754 7.37358 0.0043335 5.72623 0.0043335 3.73734C0.00433351 2.78201 0.383838 1.8658 1.05936 1.19028C1.73488 0.514759 2.65109 0.135254 3.60642 0.135254C4.56176 0.135254 5.47796 0.514759 6.15348 1.19028C6.82901 1.8658 7.20851 2.78201 7.20851 3.73734C7.20851 5.72623 5.59464 7.37358 3.60642 7.37358ZM29.9983 30.1353H23.7919V20.385C23.7919 18.0613 23.745 15.0813 20.5581 15.0813C17.3244 15.0813 16.8288 17.606 16.8288 20.2176V30.1353H10.6157V10.1058H16.581V12.838H16.6681C17.4985 11.2643 19.5269 9.60355 22.5531 9.60355C28.8478 9.60355 30.005 13.7487 30.005 19.1328V30.1353H29.9983Z" fill="#163F59"/>
</svg>
