<svg width="62" height="62" viewBox="0 0 62 62" fill="none" xmlns="http://www.w3.org/2000/svg">
<path d="M27.2991 17.676C30.915 17.676 34.3828 19.1124 36.9396 21.6693C39.4964 24.2261 40.9328 27.6939 40.9328 31.3098C40.9328 34.9257 39.4964 38.3935 36.9396 40.9503C34.3828 43.5072 30.915 44.9436 27.2991 44.9436C23.6832 44.9436 20.2154 43.5072 17.6585 40.9503C15.1017 38.3935 13.6653 34.9257 13.6653 31.3098C13.6653 27.6939 15.1017 24.2261 17.6585 21.6693C20.2154 19.1124 23.6832 17.676 27.2991 17.676ZM27.2991 24.4929C25.4911 24.4929 23.7572 25.2111 22.4788 26.4895C21.2004 27.768 20.4822 29.5019 20.4822 31.3098C20.4822 33.1178 21.2004 34.8517 22.4788 36.1301C23.7572 37.4085 25.4911 38.1267 27.2991 38.1267C29.107 38.1267 30.8409 37.4085 32.1193 36.1301C33.3978 34.8517 34.116 33.1178 34.116 31.3098C34.116 29.5019 33.3978 27.768 32.1193 26.4895C30.8409 25.2111 29.107 24.4929 27.2991 24.4929ZM13.6653 0.633788H37.5244C41.1403 0.633788 44.6081 2.0702 47.1649 4.62703C49.7218 7.18386 51.1582 10.6517 51.1582 14.2676V17.676H44.3413V14.2676C44.3413 12.4596 43.6231 10.7257 42.3447 9.4473C41.0663 8.16889 39.3324 7.45068 37.5244 7.45068H13.6653C11.8573 7.45068 10.1234 8.16889 8.84501 9.4473C7.56659 10.7257 6.84839 12.4596 6.84839 14.2676V55.1689H44.3413V48.352H51.1582V61.9858H0.0314941V14.2676C0.0314941 10.6517 1.46791 7.18386 4.02474 4.62703C6.58157 2.0702 10.0494 0.633788 13.6653 0.633788ZM44.3413 24.4929C52.8624 24.4929 52.8624 17.676 61.3835 17.676V24.4929C52.8624 24.4929 52.8624 31.3098 44.3413 31.3098V24.4929ZM44.3413 38.1267C52.8624 38.1267 52.8624 31.3098 61.3835 31.3098V38.1267C52.8624 38.1267 52.8624 44.9436 44.3413 44.9436V38.1267Z" fill="#20368F"/>
</svg>
