<svg width="60" height="60" viewBox="0 0 60 60" fill="none" xmlns="http://www.w3.org/2000/svg">
<path d="M29.9354 26.4929C30.8394 26.4929 31.7063 26.852 32.3455 27.4912C32.9848 28.1304 33.3439 28.9974 33.3439 29.9014C33.3439 30.8053 32.9848 31.6723 32.3455 32.3115C31.7063 32.9507 30.8394 33.3098 29.9354 33.3098C29.0314 33.3098 28.1645 32.9507 27.5253 32.3115C26.8861 31.6723 26.527 30.8053 26.527 29.9014C26.527 28.9974 26.8861 28.1304 27.5253 27.4912C28.1645 26.852 29.0314 26.4929 29.9354 26.4929ZM3.41769 3.38364C8.29177 -1.49044 18.858 0.690967 29.9354 7.95096C41.0129 0.690967 51.579 -1.49044 56.4531 3.38364C61.3272 8.25772 59.1458 18.8239 51.8858 29.9014C59.1458 40.9788 61.3272 51.545 56.4531 56.4191C51.579 61.2931 41.0129 59.1117 29.9354 51.8518C18.858 59.1117 8.29177 61.2931 3.41769 56.4191C-1.45639 51.545 0.725015 40.9788 7.98501 29.9014C0.725015 18.8239 -1.45639 8.25772 3.41769 3.38364ZM42.0013 17.8355C44.0805 19.9487 45.9892 22.096 47.7616 24.2433C52.4652 16.9833 54.1695 10.7459 51.6131 8.22363C49.0909 5.6673 42.8534 7.37152 35.5934 12.0752C37.7407 13.8476 39.8881 15.7563 42.0013 17.8355ZM17.8695 41.9673C15.7904 39.854 13.8816 37.7067 12.1092 35.5594C7.40557 42.8194 5.70135 49.0568 8.25768 51.5791C10.7799 54.1354 17.0174 52.4312 24.2774 47.7275C22.1301 45.9551 19.9827 44.0464 17.8695 41.9673ZM8.25768 8.22363C5.70135 10.7459 7.40557 16.9833 12.1092 24.2433C13.8816 22.096 15.7904 19.9487 17.8695 17.8355C19.9827 15.7563 22.1301 13.8476 24.2774 12.0752C17.0174 7.37152 10.7799 5.6673 8.25768 8.22363ZM22.7095 37.1273C25.0954 39.5132 27.5495 41.6946 29.9354 43.6374C32.3213 41.6946 34.7754 39.5132 37.1613 37.1273C39.5472 34.7413 41.7286 32.2873 43.6715 29.9014C41.7286 27.5154 39.5472 25.0614 37.1613 22.6754C34.7754 20.2895 32.3213 18.1081 29.9354 16.1653C27.5495 18.1081 25.0954 20.2895 22.7095 22.6754C20.3236 25.0614 18.1422 27.5154 16.1994 29.9014C18.1422 32.2873 20.3236 34.7413 22.7095 37.1273ZM51.6131 51.5791C54.1695 49.0568 52.4652 42.8194 47.7616 35.5594C45.9892 37.7067 44.0805 39.854 42.0013 41.9673C39.8881 44.0464 37.7407 45.9551 35.5934 47.7275C42.8534 52.4312 49.0909 54.1354 51.6131 51.5791Z" fill="#20368F"/>
</svg>
