<svg width="72" height="73" viewBox="0 0 72 73" fill="none" xmlns="http://www.w3.org/2000/svg">
<path d="M58.2503 48.1267V37.9014C56.5461 37.9014 42.9123 38.4467 41.3785 52.2168C46.6957 54.0915 49.4906 59.954 47.6159 65.2712C46.7085 67.8269 44.8249 69.9186 42.3778 71.0878C39.9308 72.257 37.12 72.4084 34.5616 71.5086C29.2785 69.5999 26.4495 63.7715 28.3241 58.4543C29.2785 55.523 31.6644 53.2394 34.5616 52.2168C35.0383 46.3253 37.765 40.8435 42.1757 36.9087C46.5865 32.9739 52.3428 30.8883 58.2503 31.0845V20.8591L71.8841 34.4929L58.2503 48.1267ZM41.2081 61.7605C41.2081 60.8565 40.849 59.9896 40.2097 59.3503C39.5705 58.7111 38.7036 58.352 37.7996 58.352C36.8956 58.352 36.0287 58.7111 35.3895 59.3503C34.7503 59.9896 34.3912 60.8565 34.3912 61.7605C34.3912 62.6645 34.7503 63.5314 35.3895 64.1706C36.0287 64.8098 36.8956 65.1689 37.7996 65.1689C38.7036 65.1689 39.5705 64.8098 40.2097 64.1706C40.849 63.5314 41.2081 62.6645 41.2081 61.7605ZM34.3912 34.9019C36.3681 32.6524 38.6517 30.7095 41.2081 29.1417V14.0422H51.4334L37.7996 0.408447L24.1658 14.0422H34.3912V34.9019ZM18.0306 17.4507H11.2137L0.306702 48.1267H6.78275L9.16866 41.3098H20.0757L22.4616 48.1267H28.9377L18.0306 17.4507ZM10.7025 36.7084L14.6222 24.2676L18.5419 36.7084H10.7025Z" fill="#20368F"/>
</svg>
