<svg width="37" height="31" viewBox="0 0 37 31" fill="none" xmlns="http://www.w3.org/2000/svg">
<path d="M33.145 7.61179C33.1684 7.9399 33.1684 8.26808 33.1684 8.59619C33.1684 18.604 25.5513 30.1353 11.6293 30.1353C7.34026 30.1353 3.35591 28.893 0.0043335 26.7369C0.613731 26.8071 1.19961 26.8306 1.83245 26.8306C5.37146 26.8306 8.62932 25.6353 11.2309 23.5962C7.90276 23.5259 5.11369 21.3462 4.15274 18.3462C4.62153 18.4165 5.09024 18.4633 5.58248 18.4633C6.26215 18.4633 6.94188 18.3696 7.57466 18.2056C4.10592 17.5024 1.50427 14.4556 1.50427 10.7759V10.6822C2.51205 11.2447 3.68402 11.5962 4.92612 11.643C2.88705 10.2836 1.55117 7.96335 1.55117 5.33833C1.55117 3.9321 1.9261 2.64304 2.58239 1.51803C6.30897 6.11178 11.9106 9.11173 18.1917 9.43991C18.0746 8.87741 18.0042 8.29153 18.0042 7.70558C18.0042 3.53365 21.3793 0.135254 25.5746 0.135254C27.7542 0.135254 29.723 1.04931 31.1058 2.52588C32.8167 2.19777 34.4573 1.56492 35.9105 0.697758C35.3479 2.45561 34.1527 3.93217 32.5824 4.86961C34.1058 4.70563 35.5824 4.28366 36.9417 3.69778C35.9107 5.19772 34.6215 6.5336 33.145 7.61179V7.61179Z" fill="#163F59"/>
</svg>
